<?xml version="1.0" encoding="utf-8"?>
<!-- Svg Vector Icons : http://www.onlinewebfonts.com/icon -->
<!DOCTYPE svg PUBLIC "-//W3C//DTD SVG 1.1//EN" "http://www.w3.org/Graphics/SVG/1.1/DTD/svg11.dtd">
<svg version="1.1" xmlns="http://www.w3.org/2000/svg" xmlns:xlink="http://www.w3.org/1999/xlink" x="0px" y="0px" viewBox="0 0 1000 1000" enable-background="new 0 0 1000 1000" xml:space="preserve">
<metadata> Svg Vector Icons : http://www.onlinewebfonts.com/icon </metadata>
<g><g transform="translate(0.000000,512.000000) scale(0.100000,-0.100000)"><path d="M1609.3,5003.8c-51.8-17.3-117.1-57.6-159.3-101.7c-67.2-69.1-111.3-180.4-608.3-1575.5C502,2378.6,304.4,1797.2,304.4,1753c0-119,90.2-270.6,199.6-337.7l94-57.6l1368.2-5.8l1366.3-5.8l15.4-42.2c24.9-72.9,32.6-1519.8,7.7-1717.5c-48-387.6-157.4-640.9-355-827.1c-199.6-186.1-391.5-255.2-792.5-285.9c-193.8-15.4-224.5-23-295.5-72.9c-253.3-176.6-220.7-592.9,74.8-971c370.4-472.1,1256.9-836.7,2293.2-946c155.4-15.4,291.7-28.8,303.2-28.8c11.5,0,19.2-82.5,19.2-220.7v-220.7H2808.6c-1285.7,0-1794.2,5.7-1794.2,21.1c0,11.5,186.1,838.6,412.6,1838.4c226.4,997.9,412.6,1823,412.6,1830.7c0,7.7,159.3,13.5,355,13.5h355v403v403h-546.9c-602.6,0-635.2-5.8-750.3-117.1c-34.5-32.6-74.8-90.2-92.1-128.6c-23-55.7-422.2-1803.8-1059.3-4624.7c-3.8-24.9,3.8-92.1,19.2-147.7c40.3-136.2,159.3-245.6,297.4-276.3c142-30.7,9034.5-30.7,9176.5,0c142,30.7,261,143.9,297.4,284c25,101.7,21.1,126.6-397.2,2425.5C9173.9-294.5,9062.6,277.4,9033.8,323.4c-53.7,88.3-140.1,155.4-224.5,180.4c-42.2,11.5-330.1,19.2-708.1,19.2h-639V120v-403h447.1h447.1l330.1-1826.9c182.3-1005.5,332-1840.3,330.1-1851.8c0-19.2-374.2-24.9-1803.8-24.9H5408.8v218.8v218.7l130.5,13.5c702.4,65.3,1274.2,203.4,1732.8,416.4c631.3,295.5,994,725.4,995.9,1178.3c0,145.8-57.6,262.9-168.9,341.6c-69.1,49.9-101.7,57.6-295.5,72.9c-422.2,34.6-627.5,113.2-821.3,312.8c-184.2,193.8-284,439.4-328.1,806c-23,193.8-13.4,1642.6,9.6,1711.7l15.4,42.2l1366.3,5.8l1368.2,5.8l94,57.6c105.5,65.2,199.6,218.8,199.6,330.1c0,67.2-829,2989.8-871.2,3074.2c-34.5,63.3-97.9,120.9-184.2,167c-61.4,32.6-128.6,36.5-830.9,42.2l-761.8,5.8v-403v-404.9h562.2h560.3L8467.7,3223c157.3-550.7,289.8-1017.1,295.5-1034.3c7.7-32.6-178.5-34.5-3736.2-34.5c-2059.1,0-3743.9,3.8-3743.9,11.5s479.7,1358.6,713.9,2009.2l19.2,51.8h468.2h468.2v403v403l-627.5-1.9C1845.3,5030.6,1674.5,5023,1609.3,5003.8z M4602.9,947.1V546l-147.8,28.8c-82.5,15.3-174.6,38.4-209.2,53.7l-59.5,24.9L4175,966.3c-5.8,172.7-15.4,330.1-23,349.2c-13.4,30.7,5.8,32.6,218.8,32.6h232.2V947.1z M5859.8,1315.5c-7.7-19.2-19.2-176.5-24.9-349.2l-9.6-312.8l-59.5-24.9c-34.6-15.3-126.7-38.4-209.2-53.7L5408.8,546v401.1v401.1H5641C5854,1348.1,5873.2,1346.2,5859.8,1315.5z M4380.3-227.3c253.3-38.4,222.6,23,222.6-449v-412.6h-51.8c-78.7,0-289.8,36.4-403,67.2l-97.9,28.8l26.9,101.7c38.4,142,84.4,429.9,84.4,531.6c0,122.8,19.2,176.5,51.8,163.1C4228.7-202.4,4303.5-215.8,4380.3-227.3z M5838.7-229.3c5.8-24.9,11.5-84.4,11.5-134.3c0-101.7,65.3-500.8,94-577.6c19.2-49.9,17.3-51.8-80.6-78.7c-113.2-32.6-322.4-69.1-401.1-69.1h-53.7v410.6c0,451-5.8,431.8,120.9,435.6c34.6,0,109.4,13.4,167,26.9c57.6,13.4,111.3,24.9,117.1,26.9C5821.4-189,5831-206.2,5838.7-229.3z M4113.5-1835.4c105.5-21.1,259.1-44.2,341.6-51.8l147.8-13.4v-420.3v-422.2l-157.4,13.5c-491.3,40.3-1009.4,170.8-1370.1,343.5c-224.5,107.5-262.9,138.2-205.3,157.4c284,99.8,523.9,243.7,694.7,416.4l101.7,103.6l128.6-44.1C3864.1-1776,4008-1814.3,4113.5-1835.4z M6740.6-2046.5c61.4-36.5,178.5-94,262.9-126.6c84.4-34.6,155.4-71,155.4-78.7c5.8-32.6-339.7-197.6-569.9-274.4c-126.7-42.2-316.6-94-422.2-115.1c-186.1-38.4-625.6-97.9-713.9-97.9h-44.1v420.2v418.3l149.7,13.4c193.8,17.3,481.7,76.8,648.6,132.4l132.4,46.1l145.8-136.2C6564.1-1919.9,6679.2-2010.1,6740.6-2046.5z"/><path d="M4602.9,4312.9v-719.6l-71,7.7c-40.3,5.8-155.4,15.4-255.2,21.1c-401.1,24.9-957.6,128.6-1157.1,216.8l-84.4,38.4l-284-284l-284-284l84.4-61.4c243.7-180.4,710-320.5,1303-391.5c1066.9-130.5,2354.6-65.2,3089.5,153.5c195.7,57.6,445.2,176.5,533.5,251.4l63.3,53.7l-284,284l-285.9,282.1l-82.5-40.3c-182.3-88.3-742.6-193.8-1153.3-218.8c-99.8-5.8-214.9-15.3-253.3-21.1l-72.9-7.7v719.6v719.6h-403h-403V4312.9z"/></g></g>
</svg>